<?xml version="1.0" encoding="utf-8"?>
<!-- Generator: Adobe Illustrator 27.1.1, SVG Export Plug-In . SVG Version: 6.00 Build 0)  -->
<svg version="1.1" id="Layer_1" xmlns="http://www.w3.org/2000/svg" xmlns:xlink="http://www.w3.org/1999/xlink" x="0px" y="0px"
	 viewBox="0 0 300 120" style="enable-background:new 0 0 300 120;" xml:space="preserve">
<style type="text/css">
	.st0{fill:#010101;}
	.st1{fill:#FFFFFF;}
	.st2{fill:#9F9FA0;}
	.st3{fill:url(#SVGID_1_);}
	.st4{fill:#231815;}
	.st5{fill:url(#SVGID_00000050627872458354623990000013163604953673235883_);}
	.st6{fill:url(#SVGID_00000171687389544896920890000014421638994768323471_);}
	.st7{fill:url(#SVGID_00000026864990903369042370000015438044800549164188_);}
	.st8{fill:url(#SVGID_00000042012793351142490110000000436538865731241642_);}
	.st9{fill:url(#SVGID_00000060015163782113556090000015480232501088059799_);}
</style>
<g>
	<g>
		<path class="st0" d="M62,92.7v3.6h-0.6v-3.6h-1v-0.6H63v0.6H62z"/>
		<path class="st0" d="M63.3,94.2c0-0.6,0.2-1.1,0.7-1.5c0.4-0.4,1-0.6,1.6-0.6c0.6,0,1.1,0.2,1.6,0.6c0.4,0.4,0.7,1,0.7,1.6
			c0,0.6-0.2,1.1-0.7,1.6c-0.4,0.4-1,0.6-1.6,0.6c-0.5,0-1-0.2-1.5-0.6C63.6,95.4,63.3,94.9,63.3,94.2z M64,94.2
			c0,0.5,0.2,0.9,0.5,1.2c0.3,0.3,0.7,0.5,1.1,0.5c0.4,0,0.8-0.2,1.1-0.5c0.3-0.3,0.5-0.7,0.5-1.1c0-0.5-0.2-0.8-0.5-1.1
			c-0.3-0.3-0.7-0.5-1.1-0.5c-0.4,0-0.8,0.2-1.1,0.5C64.1,93.4,64,93.7,64,94.2z"/>
		<path class="st0" d="M70,94.5l1.3,1.8h-0.8l-1.2-1.7h-0.1v1.7h-0.6v-4.2h0.8c0.6,0,1,0.1,1.2,0.3c0.3,0.2,0.4,0.5,0.4,0.9
			c0,0.3-0.1,0.6-0.3,0.8C70.5,94.3,70.3,94.4,70,94.5z M69.2,94h0.2c0.6,0,0.9-0.2,0.9-0.7c0-0.4-0.3-0.7-0.9-0.7h-0.2V94z"/>
		<path class="st0" d="M74.5,95.3h-1.8l-0.5,1h-0.7l2.1-4.5l2,4.5h-0.7L74.5,95.3z M74.2,94.7l-0.6-1.4l-0.7,1.4H74.2z"/>
		<path class="st0" d="M77.6,94.5l1.3,1.8h-0.8l-1.2-1.7h-0.1v1.7h-0.6v-4.2h0.8c0.6,0,1,0.1,1.2,0.3c0.3,0.2,0.4,0.5,0.4,0.9
			c0,0.3-0.1,0.6-0.3,0.8C78.1,94.3,77.9,94.4,77.6,94.5z M76.8,94H77c0.6,0,0.9-0.2,0.9-0.7c0-0.4-0.3-0.7-0.9-0.7h-0.2V94z"/>
		<path class="st0" d="M81.9,92.7h-1.7v1h1.7v0.6h-1.7v1.4h1.7v0.6h-2.3v-4.2h2.3V92.7z"/>
		<path class="st0" d="M83.9,92.7v3.6h-0.6v-3.6h-1v-0.6h2.6v0.6H83.9z"/>
		<path class="st0" d="M87.9,95.3h-1.8l-0.5,1H85l2.1-4.5l2,4.5h-0.7L87.9,95.3z M87.7,94.7l-0.6-1.4l-0.7,1.4H87.7z"/>
		<path class="st0" d="M93.5,94.1h1.8v0.1c0,0.3,0,0.6-0.1,0.8c-0.1,0.2-0.2,0.4-0.4,0.6c-0.4,0.4-0.9,0.7-1.5,0.7
			c-0.6,0-1.1-0.2-1.5-0.6c-0.4-0.4-0.6-0.9-0.6-1.6c0-0.6,0.2-1.1,0.6-1.6c0.4-0.4,1-0.6,1.6-0.6c0.3,0,0.6,0.1,0.9,0.2
			c0.3,0.1,0.5,0.4,0.8,0.7l-0.5,0.4c-0.3-0.5-0.8-0.7-1.3-0.7c-0.4,0-0.8,0.2-1.1,0.5c-0.3,0.3-0.5,0.7-0.5,1.1
			c0,0.5,0.2,0.9,0.5,1.2c0.3,0.3,0.7,0.4,1,0.4c0.3,0,0.6-0.1,0.9-0.3c0.3-0.2,0.4-0.5,0.4-0.8h-1.1V94.1z"/>
		<path class="st0" d="M96.8,92.1v4.2h-0.6v-4.2H96.8z"/>
		<path class="st0" d="M99.2,94.5l1.3,1.8h-0.8l-1.2-1.7h-0.1v1.7h-0.6v-4.2h0.8c0.6,0,1,0.1,1.2,0.3c0.3,0.2,0.4,0.5,0.4,0.9
			c0,0.3-0.1,0.6-0.3,0.8C99.7,94.3,99.5,94.4,99.2,94.5z M98.4,94h0.2c0.6,0,0.9-0.2,0.9-0.7c0-0.4-0.3-0.7-0.9-0.7h-0.2V94z"/>
		<path class="st0" d="M101.8,92.1v3.6h1.2v0.6h-1.9v-4.2H101.8z"/>
		<path class="st0" d="M106.1,92.7l-0.5,0.3c-0.1-0.2-0.2-0.3-0.3-0.3c-0.1-0.1-0.2-0.1-0.4-0.1c-0.2,0-0.3,0.1-0.4,0.2
			c-0.1,0.1-0.2,0.2-0.2,0.4c0,0.2,0.2,0.4,0.5,0.5l0.4,0.2c0.3,0.1,0.6,0.3,0.8,0.5c0.2,0.2,0.2,0.4,0.2,0.7c0,0.4-0.1,0.7-0.4,1
			c-0.3,0.3-0.6,0.4-1,0.4c-0.4,0-0.7-0.1-0.9-0.3c-0.2-0.2-0.4-0.5-0.4-0.9l0.6-0.1c0,0.2,0.1,0.4,0.2,0.5c0.1,0.2,0.3,0.3,0.6,0.3
			c0.2,0,0.4-0.1,0.5-0.2c0.1-0.1,0.2-0.3,0.2-0.5c0-0.1,0-0.2,0-0.2c0-0.1-0.1-0.1-0.1-0.2c0-0.1-0.1-0.1-0.2-0.2
			c-0.1-0.1-0.2-0.1-0.3-0.1l-0.4-0.2c-0.6-0.2-0.9-0.6-0.9-1.1c0-0.3,0.1-0.6,0.4-0.8c0.2-0.2,0.5-0.3,0.9-0.3
			C105.4,92,105.8,92.2,106.1,92.7z"/>
		<path class="st0" d="M109.3,94.6v1.7h-0.6v-4.2h0.7c0.4,0,0.6,0,0.8,0.1c0.2,0,0.3,0.1,0.5,0.3c0.2,0.2,0.4,0.5,0.4,0.9
			c0,0.4-0.1,0.7-0.4,0.9c-0.3,0.2-0.6,0.3-1.1,0.3H109.3z M109.3,94h0.2c0.6,0,0.9-0.2,0.9-0.7c0-0.4-0.3-0.7-0.9-0.7h-0.2V94z"/>
		<path class="st0" d="M112.4,93.7h1.8v-1.7h0.6v4.2h-0.6v-2h-1.8v2h-0.6v-4.2h0.6V93.7z"/>
		<path class="st0" d="M115.7,94.2c0-0.6,0.2-1.1,0.7-1.5c0.4-0.4,1-0.6,1.6-0.6c0.6,0,1.1,0.2,1.6,0.6c0.4,0.4,0.7,1,0.7,1.6
			c0,0.6-0.2,1.1-0.7,1.6c-0.4,0.4-1,0.6-1.6,0.6c-0.5,0-1-0.2-1.5-0.6C115.9,95.4,115.7,94.9,115.7,94.2z M116.3,94.2
			c0,0.5,0.2,0.9,0.5,1.2c0.3,0.3,0.7,0.5,1.1,0.5c0.4,0,0.8-0.2,1.1-0.5c0.3-0.3,0.5-0.7,0.5-1.1c0-0.5-0.2-0.8-0.5-1.1
			c-0.3-0.3-0.7-0.5-1.1-0.5c-0.4,0-0.8,0.2-1.1,0.5C116.5,93.4,116.3,93.7,116.3,94.2z"/>
		<path class="st0" d="M122.1,92.7v3.6h-0.6v-3.6h-1v-0.6h2.6v0.6H122.1z"/>
		<path class="st0" d="M123.4,94.2c0-0.6,0.2-1.1,0.7-1.5c0.4-0.4,1-0.6,1.6-0.6c0.6,0,1.1,0.2,1.6,0.6c0.4,0.4,0.7,1,0.7,1.6
			c0,0.6-0.2,1.1-0.7,1.6c-0.4,0.4-1,0.6-1.6,0.6c-0.5,0-1-0.2-1.5-0.6C123.7,95.4,123.4,94.9,123.4,94.2z M124.1,94.2
			c0,0.5,0.2,0.9,0.5,1.2c0.3,0.3,0.7,0.5,1.1,0.5c0.4,0,0.8-0.2,1.1-0.5c0.3-0.3,0.5-0.7,0.5-1.1c0-0.5-0.2-0.8-0.5-1.1
			c-0.3-0.3-0.7-0.5-1.1-0.5c-0.4,0-0.8,0.2-1.1,0.5C124.2,93.4,124.1,93.7,124.1,94.2z"/>
		<path class="st0" d="M132.8,92.7l-0.5,0.3c-0.1-0.2-0.2-0.3-0.3-0.3c-0.1-0.1-0.2-0.1-0.4-0.1c-0.2,0-0.3,0.1-0.4,0.2
			c-0.1,0.1-0.2,0.2-0.2,0.4c0,0.2,0.2,0.4,0.5,0.5l0.4,0.2c0.3,0.1,0.6,0.3,0.8,0.5c0.2,0.2,0.2,0.4,0.2,0.7c0,0.4-0.1,0.7-0.4,1
			c-0.3,0.3-0.6,0.4-1,0.4c-0.4,0-0.7-0.1-0.9-0.3c-0.2-0.2-0.4-0.5-0.4-0.9l0.6-0.1c0,0.2,0.1,0.4,0.2,0.5c0.1,0.2,0.3,0.3,0.6,0.3
			c0.2,0,0.4-0.1,0.5-0.2c0.1-0.1,0.2-0.3,0.2-0.5c0-0.1,0-0.2,0-0.2c0-0.1-0.1-0.1-0.1-0.2c0-0.1-0.1-0.1-0.2-0.2
			c-0.1-0.1-0.2-0.1-0.3-0.1l-0.4-0.2c-0.6-0.2-0.9-0.6-0.9-1.1c0-0.3,0.1-0.6,0.4-0.8c0.2-0.2,0.5-0.3,0.9-0.3
			C132.1,92,132.5,92.2,132.8,92.7z"/>
		<path class="st0" d="M136,92.7h-1.7v1h1.7v0.6h-1.7v1.4h1.7v0.6h-2.3v-4.2h2.3V92.7z"/>
		<path class="st0" d="M139.3,92.7l-0.5,0.3c-0.1-0.2-0.2-0.3-0.3-0.3c-0.1-0.1-0.2-0.1-0.4-0.1c-0.2,0-0.3,0.1-0.4,0.2
			c-0.1,0.1-0.2,0.2-0.2,0.4c0,0.2,0.2,0.4,0.5,0.5l0.4,0.2c0.3,0.1,0.6,0.3,0.8,0.5c0.2,0.2,0.2,0.4,0.2,0.7c0,0.4-0.1,0.7-0.4,1
			c-0.3,0.3-0.6,0.4-1,0.4c-0.4,0-0.7-0.1-0.9-0.3c-0.2-0.2-0.4-0.5-0.4-0.9l0.6-0.1c0,0.2,0.1,0.4,0.2,0.5c0.1,0.2,0.3,0.3,0.6,0.3
			c0.2,0,0.4-0.1,0.5-0.2c0.1-0.1,0.2-0.3,0.2-0.5c0-0.1,0-0.2,0-0.2c0-0.1-0.1-0.1-0.1-0.2c0-0.1-0.1-0.1-0.2-0.2
			c-0.1-0.1-0.2-0.1-0.3-0.1l-0.4-0.2c-0.6-0.2-0.9-0.6-0.9-1.1c0-0.3,0.1-0.6,0.4-0.8c0.2-0.2,0.5-0.3,0.9-0.3
			C138.6,92,139,92.2,139.3,92.7z"/>
		<path class="st0" d="M142.6,92.7L142,93c-0.1-0.2-0.2-0.3-0.3-0.3c-0.1-0.1-0.2-0.1-0.4-0.1c-0.2,0-0.3,0.1-0.4,0.2
			c-0.1,0.1-0.2,0.2-0.2,0.4c0,0.2,0.2,0.4,0.5,0.5l0.4,0.2c0.3,0.1,0.6,0.3,0.8,0.5c0.2,0.2,0.2,0.4,0.2,0.7c0,0.4-0.1,0.7-0.4,1
			c-0.3,0.3-0.6,0.4-1,0.4c-0.4,0-0.7-0.1-0.9-0.3c-0.2-0.2-0.4-0.5-0.4-0.9l0.6-0.1c0,0.2,0.1,0.4,0.2,0.5c0.1,0.2,0.3,0.3,0.6,0.3
			c0.2,0,0.4-0.1,0.5-0.2c0.1-0.1,0.2-0.3,0.2-0.5c0-0.1,0-0.2,0-0.2c0-0.1-0.1-0.1-0.1-0.2c0-0.1-0.1-0.1-0.2-0.2
			c-0.1-0.1-0.2-0.1-0.3-0.1l-0.4-0.2c-0.6-0.2-0.9-0.6-0.9-1.1c0-0.3,0.1-0.6,0.4-0.8c0.2-0.2,0.5-0.3,0.9-0.3
			C141.9,92,142.3,92.2,142.6,92.7z"/>
		<path class="st0" d="M144.1,92.1v4.2h-0.6v-4.2H144.1z"/>
		<path class="st0" d="M144.9,94.2c0-0.6,0.2-1.1,0.7-1.5c0.4-0.4,1-0.6,1.6-0.6c0.6,0,1.1,0.2,1.6,0.6c0.4,0.4,0.7,1,0.7,1.6
			c0,0.6-0.2,1.1-0.7,1.6c-0.4,0.4-1,0.6-1.6,0.6c-0.5,0-1-0.2-1.5-0.6C145.1,95.4,144.9,94.9,144.9,94.2z M145.5,94.2
			c0,0.5,0.2,0.9,0.5,1.2c0.3,0.3,0.7,0.5,1.1,0.5c0.4,0,0.8-0.2,1.1-0.5c0.3-0.3,0.5-0.7,0.5-1.1c0-0.5-0.2-0.8-0.5-1.1
			c-0.3-0.3-0.7-0.5-1.1-0.5c-0.4,0-0.8,0.2-1.1,0.5C145.7,93.4,145.5,93.7,145.5,94.2z"/>
		<path class="st0" d="M150.1,96.3v-4.5l3.1,3.2v-3h0.6v4.5l-3.1-3.2v3H150.1z"/>
	</g>
	<g>
		<g>
			<g>
				<path class="st1" d="M75.7,73.4c0.1,0.1,0.2,0.2,0.3,0.3c0.8,0.6,1.4,0.6,1.7,0.5c0.2,0,0.7-0.1,1.9-1.4c0.6-0.6,1-1.1,1.3-1.5
					c0.9-1,0.8-2.5-0.2-3.4l-9.3-8.4l13.4-13.3c0.1-0.1,0.3-0.3,0.4-0.5c0.4,0.2,0.8,0.4,1.3,0.4h15.8v11H86.4
					c-1.3,0-2.4,1.1-2.4,2.4v2.2c0,1.3,1.1,2.4,2.4,2.4h20.4c1.3,0,2.4-1.1,2.4-2.4V41.4c0-1.3-1.1-2.4-2.4-2.4H91.1v-7.6h15.8
					c1.3,0,2.4-1.1,2.4-2.4v-2.2c0-1.3-1.1-2.4-2.4-2.4H91.1v-1.2c0-1.3-1.1-2.4-2.4-2.4h-2.2c-1.3,0-2.4,1.1-2.4,2.4v19
					c-0.3-0.1-0.6-0.2-1-0.2h-0.3c0.6-0.4,1.1-1.2,1.1-2v-2.5c0-1.3-1.1-2.4-2.4-2.4h-5.6c0.6-0.4,1-1.1,1-1.9v-4.6h4.6
					c1.3,0,2.4-1.1,2.4-2.4v-2.5c0-1.3-1.1-2.4-2.4-2.4h-4.6v-4.5c0-1.3-1.1-2.4-2.4-2.4H37.2c-1.3,0-2.4,1.1-2.4,2.4v5.9
					c-0.4-0.8-1.2-1.4-2.2-1.4h-4.5v-4.5c0-1.3-1.1-2.4-2.4-2.4h-2.5c-1.3,0-2.4,1.1-2.4,2.4v4.5H9.4c-1.3,0-2.4,1.1-2.4,2.4V26
					c0,1.3,1.1,2.4,2.4,2.4h11.3v8.8L7.1,50.9c-0.5,0.5-0.7,1.1-0.7,1.8c0,0.7,0.3,1.3,0.8,1.7L9,56.2c0.5,0.4,1.1,0.7,1.7,0.7
					c0.6,0,1.3-0.2,1.7-0.7l8.4-8.5v40.9c0,1.3,1.1,2.4,2.4,2.4h2.5c1.3,0,2.4-1.1,2.4-2.4v-6.2l1.7,1.6c0.5,0.4,1.1,0.7,1.7,0.7
					c0.6,0,1.3-0.2,1.7-0.7l15.3-15.6v27.7c0,1.3,1.1,2.4,2.4,2.4h2.1c1.3,0,2.4-1.1,2.4-2.4l0.2-28c0,0.1,0.1,0.1,0.1,0.2l1.7,1.7
					c0.5,0.5,1.1,0.7,1.7,0.7h0c0.6,0,1.3-0.3,1.7-0.7l5.2-5.3L75.7,73.4z M34.8,27v2.9l-1.5-1.6C33.9,28.1,34.5,27.7,34.8,27z
					 M28.1,28.4h1.3l-1.3,1.3V28.4z M28.1,41.3c0.3,0.4,0.6,0.7,1,0.9c-0.4,0.2-0.8,0.5-1,0.9V41.3z M28.1,48.2
					c0.3,0.4,0.7,0.8,1.2,1c-0.5,0.2-0.9,0.5-1.2,1V48.2z M34.8,71.8l-6.7,6.7V55.3c0.4,0.6,1.2,1.1,2,1.1h4.6V71.8z M33.4,35
					l1.4-1.4c0.1,0.6,0.5,1,0.9,1.4H33.4z M42.1,21.5h0.6c-0.2,0.1-0.4,0.3-0.6,0.5V21.5z M42.1,27.5c0.2,0.3,0.5,0.5,0.9,0.7h-0.9
					V27.5z M48.5,57.9l-6.4,6.5v-8h4.4c0.8,0,1.6-0.4,2-1.1V57.9z M48.5,50.1c-0.3-0.4-0.7-0.8-1.2-0.9c0.5-0.2,0.9-0.5,1.2-0.9
					V50.1z M48.5,43c-0.2-0.3-0.4-0.5-0.7-0.7h0.7V43z M55.8,42.3h0.8c-0.4,0.2-0.6,0.6-0.8,1L55.8,42.3z M55.8,47.8
					c0.3,0.7,0.9,1.2,1.6,1.4l-1.5,1.5c0,0,0,0,0,0L55.8,47.8z M55.8,64.7C55.7,64.8,55.7,64.8,55.8,64.7l0-10.6c0,0,0,0,0,0
					l5.2,5.3C58.6,61.7,56.7,63.7,55.8,64.7z M61.2,49.3h10l-5.1,5.1L61.2,49.3z"/>
				<path class="st2" d="M53.1,98.8H51c-1.6,0-2.9-1.3-2.9-2.9V69.3L33.5,84.1c-1.1,1.1-2.9,1.1-4,0.1l-1-0.9v5.2
					c0,1.6-1.3,2.9-2.9,2.9h-2.5c-1.6,0-2.9-1.3-2.9-2.9V48.6l-7.6,7.8c-1.1,1.1-2.9,1.1-4,0.1l-1.8-1.7c-0.6-0.5-0.9-1.3-0.9-2
					c0-0.8,0.3-1.5,0.8-2.1L20.3,37v-8.2H9.4c-1.6,0-2.9-1.3-2.9-2.9v-2.5c0-1.6,1.3-2.9,2.9-2.9h10.9v-4.1c0-1.6,1.3-2.9,2.9-2.9
					h2.5c1.6,0,2.9,1.3,2.9,2.9v4.1h4.1c0.7,0,1.3,0.2,1.8,0.6v-4.7c0-1.6,1.3-2.9,2.9-2.9h37.1c1.6,0,2.9,1.3,2.9,2.9v4.1h4.2
					c1,0,1.9,0.5,2.4,1.4c0.4-1,1.5-1.8,2.7-1.8h2.2c1.6,0,2.9,1.3,2.9,2.9v0.8h15.4c1.6,0,2.9,1.3,2.9,2.9v2.2
					c0,1.6-1.3,2.9-2.9,2.9H91.5v6.7h15.4c1.6,0,2.9,1.3,2.9,2.9v20.3c0,1.6-1.3,2.9-2.9,2.9H86.4c-1.6,0-2.9-1.3-2.9-2.9v-2.2
					c0-1.6,1.3-2.9,2.9-2.9h15.4V46.4H86.4c-0.4,0-0.8-0.1-1.2-0.3c-0.1,0.1-0.1,0.2-0.2,0.2L72,59.4l9,8.1c1.2,1,1.3,2.9,0.2,4
					c-0.4,0.5-0.9,1.1-1.3,1.6c-1.2,1.3-1.8,1.5-2.1,1.6c-0.5,0.1-1.2,0-2-0.6c-0.1-0.1-0.3-0.2-0.4-0.3l-9.2-8.5l-4.9,5
					c-0.5,0.5-1.3,0.9-2,0.9c-0.8,0-1.5-0.3-2-0.8L56.1,69L55.9,96C55.9,97.5,54.6,98.8,53.1,98.8z M48.9,67.2v28.8c0,1.1,0.9,2,2,2
					h2.1c1.1,0,2-0.9,2-2l0.2-29.1l0.8,1l1.8,1.8c0.4,0.4,0.9,0.6,1.4,0.6c0.5,0,1.1-0.2,1.4-0.6l5.5-5.5l9.8,9.1
					c0.1,0.1,0.2,0.2,0.3,0.2c0.6,0.5,1.1,0.5,1.4,0.5c0.4-0.1,1.1-0.7,1.6-1.3c0.5-0.5,0.9-1,1.3-1.5c0.7-0.8,0.7-2.1-0.1-2.8
					l-9.7-8.7l13.7-13.6c0.1-0.1,0.2-0.2,0.3-0.4L85,45l0.4,0.2c0.3,0.2,0.7,0.3,1.1,0.3h16.2v11.9H86.4c-1.1,0-2,0.9-2,2v2.2
					c0,1.1,0.9,2,2,2h20.4c1.1,0,2-0.9,2-2V41.4c0-1.1-0.9-2-2-2H90.6v-8.4h16.2c1.1,0,2-0.9,2-2v-2.2c0-1.1-0.9-2-2-2H90.6v-1.6
					c0-1.1-0.9-2-2-2h-2.2c-1.1,0-2,0.9-2,2v19.7l-0.6-0.3c-0.3-0.1-0.5-0.2-0.8-0.2h-1.7l1.2-0.8c0.6-0.4,0.9-1,0.9-1.7v-2.5
					c0-1.1-0.9-2-2-2h-6.9l1-0.8c0.5-0.4,0.8-1,0.8-1.6V28h5.1c1.1,0,2-0.9,2-2v-2.5c0-1.1-0.9-2-2-2h-5.1v-4.9c0-1.1-0.9-2-2-2
					H37.2c-1.1,0-2,0.9-2,2v7.7l-0.8-1.7c-0.3-0.7-1-1.1-1.8-1.1h-4.9v-4.9c0-1.1-0.9-2-2-2h-2.5c-1.1,0-2,0.9-2,2v4.9H9.4
					c-1.1,0-2,0.9-2,2V26c0,1.1,0.9,2,2,2h11.7v9.4L7.4,51.2c-0.4,0.4-0.6,0.9-0.6,1.4s0.2,1.1,0.6,1.4l1.8,1.7
					c0.8,0.7,2.1,0.7,2.8-0.1l9.1-9.3v41.9c0,1.1,0.9,2,2,2h2.5c1.1,0,2-0.9,2-2v-7.2l2.4,2.3c0.8,0.7,2.1,0.7,2.8-0.1L48.9,67.2z
					 M76.7,34.6h4.7c0.9,0,1.7,0.4,2.2,1.1v-7.8c-0.5,0.6-1.3,1.1-2.2,1.1h-4.2v4.2C77.1,33.6,77,34.1,76.7,34.6z M27.7,79.5V53.9
					l0.8,1.2c0.4,0.6,1,0.9,1.7,0.9h5.1v16L27.7,79.5z M28.5,56.3v21.1l5.8-5.8V56.8h-4.2C29.5,56.8,29,56.6,28.5,56.3z M55.3,66
					l0.1-13l0.7,0.8l5.5,5.7l-0.3,0.3C58.9,62.1,57,64,56.1,65L56,65.1L55.3,66z M56.2,55.2l-0.1,8.6c1-1,2.5-2.5,4.2-4.3L56.2,55.2
					z M41.7,65.4v-9.5h4.8c0.7,0,1.3-0.3,1.7-0.9l0.8-1.2V58L41.7,65.4z M42.5,56.8v6.6l5.6-5.7v-1.4c-0.5,0.3-1,0.5-1.6,0.5H42.5z
					 M66.1,54.9l-5.9-6.1h12.1L66.1,54.9z M62.2,49.7l3.9,4l4.1-4H62.2z M55.4,51.8l0-1.1l0-5l0.8,1.9c0.2,0.6,0.7,1,1.3,1.1
					l0.7,0.2L55.4,51.8z M56.2,49l0,0.7l0.4-0.4C56.5,49.2,56.4,49.1,56.2,49z M27.7,51.5v-4.7l0.8,1.2c0.2,0.4,0.6,0.7,1,0.8
					l1.2,0.4l-1.2,0.4c-0.4,0.1-0.8,0.4-1,0.8L27.7,51.5z M48.9,51.5l-0.8-1.2c-0.2-0.4-0.6-0.6-1-0.8l-1.2-0.4l1.2-0.4
					c0.4-0.1,0.8-0.4,1-0.8l0.8-1.2V51.5z M55.4,45.3l0-3.4h2.7l-1.2,0.8c-0.3,0.2-0.5,0.5-0.7,0.8L55.4,45.3z M27.7,44.4v-4.5
					l0.8,1.2c0.2,0.3,0.5,0.6,0.8,0.7l0.9,0.4l-0.9,0.4c-0.3,0.2-0.6,0.4-0.8,0.7L27.7,44.4z M48.9,44.4l-0.8-1.2
					c-0.1-0.2-0.3-0.4-0.5-0.5l-1.2-0.8h2.5V44.4z M37,35.4h-4.7l2.8-2.6l0.2,0.7c0.1,0.4,0.4,0.8,0.7,1.1L37,35.4z M34.5,34.6h0.3
					c0-0.1-0.1-0.1-0.1-0.2L34.5,34.6z M35.2,31l-2.8-2.9l0.7-0.2c0.5-0.2,1-0.5,1.3-1.1l0.8-1.7V31z M34,28.5l0.4,0.4v-0.6
					C34.2,28.3,34.1,28.4,34,28.5z M27.7,30.8V28h2.7L27.7,30.8z M44.8,28.6h-3.1v-2.4l0.8,1c0.2,0.2,0.4,0.4,0.7,0.6L44.8,28.6z
					 M41.7,23.3v-2.2h2.4l-1.2,0.8c-0.2,0.1-0.3,0.3-0.5,0.4L41.7,23.3z"/>
			</g>
			<g>
				<path class="st1" d="M207.5,40.2h2.2c0.3,0,0.5,0,0.8-0.1c0.2,0.1,0.5,0.1,0.8,0.1h2.2c1.3,0,2.4-1.1,2.4-2.4V24.3
					c0-1.3-1.1-2.4-2.4-2.4h-2.2c-0.3,0-0.5,0-0.8,0.1c-0.2-0.1-0.5-0.1-0.8-0.1h-2.2c-1.3,0-2.4,1.1-2.4,2.4v13.4
					C205,39.1,206.1,40.2,207.5,40.2z"/>
				<path class="st2" d="M213.5,40.6h-2.2c-0.3,0-0.5,0-0.8-0.1c-0.3,0.1-0.5,0.1-0.8,0.1h-2.2c-1.6,0-2.9-1.3-2.9-2.9V24.3
					c0-1.6,1.3-2.9,2.9-2.9h2.2c0.3,0,0.5,0,0.8,0.1c0.3-0.1,0.5-0.1,0.8-0.1h2.2c1.6,0,2.9,1.3,2.9,2.9v13.4
					C216.4,39.3,215.1,40.6,213.5,40.6z M210.5,39.6l0.1,0c0.2,0.1,0.4,0.1,0.6,0.1h2.2c1.1,0,2-0.9,2-2V24.3c0-1.1-0.9-2-2-2h-2.2
					c-0.2,0-0.4,0-0.6,0.1l-0.1,0l-0.1,0c-0.2-0.1-0.4-0.1-0.6-0.1h-2.2c-1.1,0-2,0.9-2,2v13.4c0,1.1,0.9,2,2,2h2.2
					c0.2,0,0.4,0,0.6-0.1L210.5,39.6z"/>
			</g>
			<g>
				<path class="st1" d="M207.2,48.9h16c1.1,0,2-0.7,2.3-1.6v16.6c0,1.3,1.1,2.4,2.4,2.4h2.2c1.2,0,2.2-0.8,2.4-2
					c0.4-0.1,0.7-0.4,0.9-0.7l25.1-29.2c0.4-0.5,0.6-1.1,0.6-1.8c-0.1-0.6-0.4-1.2-0.9-1.7l-1.7-1.4c-0.5-0.4-1-0.6-1.6-0.6
					c-0.6,0-1.2,0.2-1.7,0.7l-14.7,14.2L236.3,24c-0.1-1.2-1.2-2.1-2.4-2.1h-2.2c-0.3,0-0.5,0-0.7,0.1c-0.2-0.1-0.5-0.1-0.7-0.1H228
					c-1.3,0-2.4,1.1-2.4,2.4v19.1c-0.3-0.9-1.2-1.6-2.3-1.6h-16c-1.3,0-2.4,1.1-2.4,2.4v2.2C204.8,47.8,205.9,48.9,207.2,48.9z"/>
				<path class="st2" d="M230.2,66.7H228c-1.6,0-2.9-1.3-2.9-2.9V48.6c-0.5,0.4-1.2,0.7-1.9,0.7h-16c-1.6,0-2.9-1.3-2.9-2.9v-2.2
					c0-1.6,1.3-2.9,2.9-2.9h16c0.7,0,1.4,0.3,1.9,0.7V24.3c0-1.6,1.3-2.9,2.9-2.9h2.2c0.3,0,0.5,0,0.7,0.1c0.2-0.1,0.5-0.1,0.7-0.1
					h2.2c1.5,0,2.7,1.1,2.8,2.5l2.3,19l14-13.6c1-1,2.8-1.1,3.8-0.1l1.7,1.4c0.6,0.5,0.9,1.2,1,2c0.1,0.8-0.2,1.5-0.7,2.1
					l-25.1,29.2c-0.2,0.3-0.6,0.5-0.9,0.7C232.6,65.8,231.5,66.7,230.2,66.7z M226,45.9v17.9c0,1.1,0.9,2,2,2h2.2c1,0,1.8-0.7,2-1.6
					l0-0.2l0.2-0.1c0.3-0.1,0.6-0.3,0.8-0.6l25.1-29.2c0.3-0.4,0.5-0.9,0.5-1.5c0-0.5-0.3-1-0.7-1.4l-1.7-1.4
					c-0.8-0.6-2-0.6-2.7,0.1l-15.3,14.8l-2.5-20.7c-0.1-1-1-1.8-2-1.8h-2.2c-0.2,0-0.4,0-0.6,0.1l-0.1,0l-0.1,0
					c-0.2-0.1-0.4-0.1-0.6-0.1H228c-1.1,0-2,0.9-2,2V45.9z M207.2,42.2c-1.1,0-2,0.9-2,2v2.2c0,1.1,0.9,2,2,2h16
					c0.8,0,1.6-0.5,1.9-1.3l0.6-1.8l-0.6-1.8c-0.3-0.8-1-1.3-1.9-1.3H207.2z"/>
			</g>
			<g>
				<path class="st1" d="M292.1,95.9l-22.5-55.5l6.9-7c0,1.3,1.1,2.4,2.4,2.4h2.2c0.3,0,0.5,0,0.8-0.1c0.2,0.1,0.5,0.1,0.8,0.1h2.2
					c1.3,0,2.4-1.1,2.4-2.4V20c0-1.3-1.1-2.4-2.4-2.4h-2.2c-0.3,0-0.5,0-0.8,0.1c-0.2-0.1-0.5-0.1-0.8-0.1H279
					c-1.3,0-2.4,1.1-2.4,2.4v1.3h-20c-1.3,0-2.4,1.1-2.4,2.4v2.2c0,1.3,1.1,2.4,2.4,2.4h10.6L243,56.8c-0.8,1-0.8,2.5,0.2,3.3
					l1.7,1.6c0.5,0.4,1.1,0.7,1.7,0.7c0.6,0,1.2-0.2,1.7-0.7l16-15.9l20.7,52c0.4,0.9,1.3,1.5,2.3,1.5h2.6c0.8,0,1.6-0.4,2-1.1
					C292.3,97.5,292.4,96.6,292.1,95.9z"/>
				<path class="st2" d="M289.8,99.7h-2.6c-1.2,0-2.2-0.7-2.7-1.8l-20.5-51.4L248.6,62c-1.1,1.1-2.9,1.1-4,0.1l-1.7-1.6
					c-1.1-1-1.2-2.8-0.2-3.9l23.5-27.7h-9.7c-1.6,0-2.9-1.3-2.9-2.9v-2.2c0-1.6,1.3-2.9,2.9-2.9h19.5V20c0-1.6,1.3-2.9,2.9-2.9h2.2
					c0.3,0,0.5,0,0.8,0.1c0.3-0.1,0.5-0.1,0.8-0.1h2.2c1.6,0,2.9,1.3,2.9,2.9v13.4c0,1.6-1.3,2.9-2.9,2.9h-2.2c-0.3,0-0.5,0-0.8-0.1
					c-0.3,0.1-0.5,0.1-0.8,0.1H279c-1.3,0-2.3-0.8-2.7-2l-6.1,6.2l22.4,55.2c0.4,0.9,0.3,1.9-0.3,2.7
					C291.7,99.2,290.8,99.7,289.8,99.7z M264.4,45l21,52.6c0.3,0.8,1,1.3,1.9,1.3h2.6c0.7,0,1.3-0.3,1.7-0.9s0.4-1.3,0.2-1.9
					l-22.6-55.8l7.9-7.9l0,1c0,1.1,0.9,2,2,2h2.2c0.2,0,0.4,0,0.6-0.1l0.1,0l0.1,0c0.2,0.1,0.4,0.1,0.6,0.1h2.2c1.1,0,2-0.9,2-2V20
					c0-1.1-0.9-2-2-2h-2.2c-0.2,0-0.4,0-0.6,0.1l-0.1,0l-0.1,0c-0.2-0.1-0.4-0.1-0.6-0.1H279c-1.1,0-2,0.9-2,2v1.7h-20.4
					c-1.1,0-2,0.9-2,2v2.2c0,1.1,0.9,2,2,2h11.6l-24.7,29.1c-0.7,0.8-0.6,2,0.2,2.8l1.7,1.6c0.8,0.7,2.1,0.7,2.8,0L264.4,45z"/>
			</g>
			<g>
				<path class="st1" d="M112,48c-0.9,1-0.9,2.5,0,3.4l1.5,1.5c0.5,0.5,1.1,0.7,1.7,0.7c0.6,0,1.2-0.2,1.7-0.7l2-2v10.7
					c0,1.3,1.1,2.4,2.4,2.4h2.2c1.3,0,2.4-1.1,2.4-2.4V43.9l11.2-11.2v28.9c0,1.3,1.1,2.4,2.4,2.4h5.8c1.3,0,2.4-1.1,2.4-2.4v-2.2
					c0-1.3-1.1-2.4-2.4-2.4h-1.2V21.6c0-1-0.6-1.9-1.5-2.3c-0.3-0.1-0.6-0.2-0.9-0.2c-0.6,0-1.3,0.2-1.7,0.7l-10.4,10.3
					c-0.1-1.2-1.2-2.2-2.4-2.2H126v-4.9c0-1.3-1.1-2.4-2.4-2.4h-2.2c-1.3,0-2.4,1.1-2.4,2.4V28h-4.8c-1.3,0-2.4,1.1-2.4,2.4v2.2
					c0,1.3,1.1,2.4,2.4,2.4h4.8v5.8L112,48z"/>
				<path class="st2" d="M145.5,64.5h-5.8c-1.6,0-2.9-1.3-2.9-2.9V33.7l-10.3,10.3v17.6c0,1.6-1.3,2.9-2.9,2.9h-2.2
					c-1.6,0-2.9-1.3-2.9-2.9V52l-1.2,1.2c-1.1,1.1-3,1.1-4.1,0l-1.5-1.5c-1.1-1.1-1.1-2.9,0-4l6.8-6.9v-5.2h-4.3
					c-1.6,0-2.9-1.3-2.9-2.9v-2.2c0-1.6,1.3-2.9,2.9-2.9h4.3v-4.5c0-1.6,1.3-2.9,2.9-2.9h2.2c1.6,0,2.9,1.3,2.9,2.9v4.5h0.8
					c1.2,0,2.2,0.7,2.6,1.8l9.8-9.8c0.8-0.8,2.1-1.1,3.1-0.6c1.1,0.4,1.8,1.5,1.8,2.6v35h0.8c1.6,0,2.9,1.3,2.9,2.9v2.2
					C148.3,63.2,147,64.5,145.5,64.5z M137.6,31.7v30c0,1.1,0.9,2,2,2h5.8c1.1,0,2-0.9,2-2v-2.2c0-1.1-0.9-2-2-2h-1.6V21.6
					c0-0.8-0.5-1.5-1.2-1.9c-0.7-0.3-1.6-0.1-2.2,0.4l-11,11l-0.1-0.9c-0.1-1-1-1.8-2-1.8h-1.7v-5.3c0-1.1-0.9-2-2-2h-2.2
					c-1.1,0-2,0.9-2,2v5.3h-5.2c-1.1,0-2,0.9-2,2v2.2c0,1.1,0.9,2,2,2h5.2v6.4l-7.1,7.2c-0.8,0.8-0.8,2.1,0,2.8l1.5,1.5
					c0.8,0.8,2.1,0.8,2.8,0l2.7-2.7v11.7c0,1.1,0.9,2,2,2h2.2c1.1,0,2-0.9,2-2V43.7L137.6,31.7z"/>
			</g>
			<g>
				<path class="st1" d="M258,66.7c-0.5-0.5-1.1-0.7-1.7-0.7c0,0,0,0,0,0c-0.6,0-1.3,0.3-1.7,0.7l-14.1,14.2l-0.8-0.9
					c-0.4-0.5-1.1-0.8-1.7-0.8l2.7-2.7c0.5-0.5,0.7-1.1,0.7-1.7c0-0.6-0.3-1.3-0.7-1.7l-0.9-0.9l0.7-0.7c0.5-0.5,0.7-1.1,0.7-1.7
					c0-0.6-0.3-1.3-0.7-1.7l-1.1-1.1c-0.5-0.5-1.1-0.7-1.7-0.7s-1.2,0.2-1.7,0.7l-8,8v-6.1c0-1.3-1.1-2.4-2.4-2.4h-12.1
					c-1.3,0-2.4,1.1-2.4,2.4v0.2h-0.2c-0.7,0-1.4,0.3-1.9,0.9c-0.4-0.5-1.1-0.9-1.9-0.9h-0.3v-0.2c0-1.3-1.1-2.4-2.4-2.4h-6.4
					c0.1-0.2,0.2-0.4,0.2-0.7l4.7-37.3c0.1-0.7-0.1-1.4-0.6-1.9c-0.5-0.5-1.1-0.8-1.8-0.8h-10.3v-1.3c0-1.3-1.1-2.4-2.4-2.4h-2.2
					c-1.3,0-2.4,1.1-2.4,2.4v1.3h-1.3c-0.9,0-1.7,0.5-2.1,1.2v-0.2c0-1.3-1.1-2.4-2.4-2.4H161V23c0-1.3-1.1-2.4-2.4-2.4h-2.2
					c-1.3,0-2.4,1.1-2.4,2.4v1.2h-1.2c-1.3,0-2.4,1.1-2.4,2.4v2.2c0,1.3,1.1,2.4,2.4,2.4h1.2v30.3c0,1.3,1.1,2.4,2.4,2.4h2.2
					c1.3,0,2.4-1.1,2.4-2.4v-6.1h11.7L157,95.9c-0.3,0.8-0.2,1.6,0.3,2.3c0.5,0.7,1.2,1.1,2,1.1h2.4c1,0,1.9-0.6,2.3-1.6L189,32.7
					l1.5,0l0.9,27.9c0,0-6.4-0.1-6.4-0.1c-0.6,0-1.3,0.3-1.7,0.7c-0.5,0.5-0.7,1.1-0.7,1.7l0,2.2c0,0.5,0.1,0.9,0.4,1.3
					c-0.9,0.4-1.5,1.2-1.5,2.2v0.2h-2.8c-1.3,0-2.4,1.1-2.4,2.4v1.6c0,1.3,1.1,2.4,2.4,2.4h2.8v0.8l-4.9,4.9
					c-0.5,0.5-0.7,1.1-0.7,1.8c0,0.7,0.3,1.3,0.8,1.7l1.2,1.1c0.5,0.4,1.1,0.7,1.7,0.7c0.6,0,1.3-0.2,1.7-0.7l0.3-0.3v11.4
					c0,1.3,1.1,2.4,2.4,2.4h1.6c1.3,0,2.4-1,2.4-2.3c0.4-0.1,0.9-0.3,1.2-0.7l2.9-3v3.5c0,1.3,1.1,2.4,2.4,2.4h1.6
					c1.3,0,2.4-1.1,2.4-2.4v-5.2c0.5-0.1,0.9-0.3,1.2-0.7l0.8-0.9l3.4,3.6c0.5,0.5,1.1,0.8,1.8,0.8c0.6,0,1.2-0.2,1.7-0.7l1.1-1l1,1
					c0.5,0.4,1.1,0.7,1.7,0.7c0.6,0,1.3-0.2,1.7-0.7l3-3v2.2h-0.3c-1.3,0-2.4,1.1-2.4,2.4v1.6c0,1.3,1.1,2.4,2.4,2.4h4.3
					c0.8,0,1.6-0.4,2-1.1l0.7,0.7c0.5,0.5,1.1,0.7,1.7,0.7c0.6,0,1.2-0.2,1.7-0.7l14.2-14.1l1,1c0.5,0.4,1.1,0.7,1.7,0.7
					c0.6,0,1.3-0.2,1.7-0.7l0.7-0.7c0.4,0.7,1.2,1.1,2,1.1h6.2l-9,9c-0.7,0.7-0.9,1.7-0.5,2.7c0.4,0.9,1.3,1.5,2.3,1.5h16
					c1.3,0,2.4-1.1,2.4-2.4v-6.8c0-1.3-1.1-2.4-2.4-2.4h-1l0.3-0.3c0.3-0.3,0.5-0.7,0.6-1.1h2.6c0.9,0,1.6-0.5,2.1-1.1l0.8,0.8
					c0.5,0.5,1.1,0.7,1.7,0.7c0.6,0,1.3-0.3,1.7-0.7l1.1-1.1c1-1,1-2.5,0-3.4L258,66.7z M175.1,49.3c-0.4-0.6-1.1-0.9-1.9-0.9h-8.5
					V40c0-1.3-1.1-2.4-2.4-2.4H161v-6.2h0.2v1.3c0,1.3,1.1,2.4,2.4,2.4h8.5v1.1c0,1.3,1.1,2.4,2.4,2.4h2.2c1.3,0,2.4-1.1,2.4-2.4
					v-4.7c0.4,0.7,1.2,1.2,2.1,1.2h0.2L175.1,49.3z M208.4,74.8c0.1-0.1,0.2-0.2,0.3-0.3c0.1,0.1,0.2,0.2,0.3,0.3
					c-0.1,0.1-0.2,0.2-0.3,0.3C208.6,75,208.5,74.9,208.4,74.8z M208.5,88.8l-3.3-3.4l4.4-4.4c0.1-0.1,0.2-0.3,0.3-0.4
					c0.2,0,0.4,0.1,0.6,0.1h0.2v2.9c0,0.8,0.4,1.6,1.1,2L208.5,88.8z M222.5,93.4v-2.8l0.3,0.3c0.4,0.4,1,0.7,1.5,0.7L222.5,93.4z
					 M258.4,92.7h-2.2l2.2-2.2V92.7z M253.5,76.8l2.8-2.8l2.8,2.8H253.5z"/>
				<path class="st2" d="M224.5,99.9c-0.8,0-1.5-0.3-2-0.8l-0.4-0.4c-0.5,0.6-1.3,0.9-2.1,0.9h-4.3c-1.6,0-2.9-1.3-2.9-2.9v-1.6
					c0-0.4,0.1-0.8,0.2-1.1c-1.1,0.9-2.8,0.8-3.8-0.1l-0.7-0.7l-0.8,0.8c-1.1,1-3,1-4-0.1l-3.1-3.3l-0.5,0.5
					c-0.3,0.3-0.7,0.5-1.1,0.7v4.9c0,1.6-1.3,2.9-2.9,2.9h-1.6c-1.6,0-2.9-1.3-2.9-2.9v-2.5l-2.2,2.2c-0.3,0.3-0.7,0.6-1.1,0.7
					c-0.2,1.4-1.4,2.4-2.8,2.4H184c-1.6,0-2.9-1.3-2.9-2.9V86.3c-1.1,0.7-2.6,0.6-3.6-0.3l-1.2-1.1c-0.6-0.5-0.9-1.3-0.9-2
					c0-0.8,0.3-1.5,0.8-2.1l4.8-4.8v-0.1h-2.4c-1.6,0-2.9-1.3-2.9-2.9v-1.6c0-1.6,1.3-2.9,2.9-2.9h2.4c0.1-0.9,0.6-1.7,1.3-2.2
					c-0.1-0.4-0.2-0.7-0.2-1.1l0-2.2c0-0.8,0.3-1.5,0.8-2c0.5-0.5,1.3-0.8,2-0.8c0,0,4.5,0,5.9,0l-0.9-27l-0.8,0l-25,64.7
					c-0.4,1.1-1.5,1.8-2.7,1.8h-2.4c-0.9,0-1.8-0.5-2.4-1.2c-0.5-0.8-0.6-1.8-0.3-2.7l15.5-39.9h-10.6v5.7c0,1.6-1.3,2.9-2.9,2.9
					h-2.2c-1.6,0-2.9-1.3-2.9-2.9V31.7h-0.8c-1.6,0-2.9-1.3-2.9-2.9v-2.2c0-1.6,1.3-2.9,2.9-2.9h0.8V23c0-1.6,1.3-2.9,2.9-2.9h2.2
					c1.6,0,2.9,1.3,2.9,2.9v0.8h15.4c1.3,0,2.4,0.9,2.7,2c0.5-0.4,1.1-0.7,1.8-0.7h0.9v-0.9c0-1.6,1.3-2.9,2.9-2.9h2.2
					c1.6,0,2.9,1.3,2.9,2.9v0.9h9.9c0.8,0,1.6,0.4,2.2,1c0.5,0.6,0.8,1.4,0.7,2.3l-4.7,37.3c0,0.1,0,0.1,0,0.2h5.9
					c1.5,0,2.7,1.2,2.9,2.6c0.6,0,1.2,0.3,1.7,0.7c0.5-0.4,1-0.6,1.6-0.7c0.1-1.5,1.4-2.6,2.9-2.6h12.1c1.6,0,2.9,1.3,2.9,2.9v5.1
					l7.3-7.3c1.1-1.1,3-1.1,4.1,0l1.1,1.1c0.5,0.5,0.8,1.3,0.8,2c0,0.8-0.3,1.5-0.8,2l-0.4,0.4l0.6,0.6c0.5,0.5,0.8,1.3,0.8,2
					c0,0.8-0.3,1.5-0.8,2l-2.1,2.1c0.4,0.2,0.8,0.4,1.2,0.8l0.5,0.6l13.8-13.9c0.5-0.5,1.3-0.8,2-0.8c0.8,0,1.5,0.3,2,0.8l14.4,14.4
					c1.1,1.1,1.1,2.9,0,4.1l-1.1,1.1c-0.5,0.5-1.3,0.8-2,0.8c0,0,0,0,0,0c-0.8,0-1.5-0.3-2-0.8l-0.4-0.4c-0.5,0.6-1.3,0.9-2.1,0.9
					h-2.3c-0.1,0.2-0.2,0.4-0.3,0.6c1.6,0,2.8,1.3,2.8,2.9v6.8c0,1.6-1.3,2.9-2.9,2.9h-16c-1.2,0-2.2-0.7-2.7-1.8
					c-0.4-1.1-0.2-2.3,0.6-3.1l8.3-8.3h-5.1c-0.8,0-1.5-0.3-2.1-0.9l-0.3,0.3c-1.1,1.1-2.9,1.1-4,0.1l-0.7-0.7l-13.9,13.8
					C226,99.6,225.2,99.9,224.5,99.9z M222,97.4l1.1,1.1c0.8,0.8,2.1,0.8,2.8,0l14.5-14.4l1.3,1.2c0.8,0.7,2.1,0.7,2.8-0.1l1-1.1
					l0.3,0.4c0.4,0.6,1,0.9,1.7,0.9h7.2l-9.8,9.7c-0.6,0.6-0.7,1.4-0.4,2.2c0.3,0.8,1,1.2,1.9,1.2h16c1.1,0,2-0.9,2-2v-6.8
					c0-1.1-0.9-2-2-2h-2l1.1-1.1c0.3-0.3,0.4-0.6,0.5-0.9l0.1-0.3h2.9c0.7,0,1.3-0.4,1.7-0.9l0.3-0.5l1.1,1.1
					c0.4,0.4,0.9,0.6,1.4,0.6c0,0,0,0,0,0c0.5,0,1-0.2,1.4-0.6l1.1-1.1c0.8-0.8,0.8-2.1,0-2.8L257.7,67c-0.8-0.8-2.1-0.8-2.8,0
					l-14.5,14.5l-1.1-1.2c-0.4-0.4-0.9-0.6-1.4-0.6l-1,0l3.4-3.4c0.4-0.4,0.6-0.9,0.6-1.4c0-0.5-0.2-1-0.6-1.4l-1.2-1.2l1-1
					c0.4-0.4,0.6-0.9,0.6-1.4c0-0.5-0.2-1-0.6-1.4l-1.1-1.1c-0.8-0.8-2.1-0.8-2.8,0l-8.7,8.7v-7.2c0-1.1-0.9-2-2-2h-12.1
					c-1.1,0-2,0.9-2,2v0.6h-0.6c-0.6,0-1.1,0.3-1.5,0.7l-0.3,0.4l-0.3-0.4c-0.4-0.5-0.9-0.7-1.5-0.7h-0.7v-0.6c0-1.1-0.9-2-2-2H197
					l0.3-0.6c0.1-0.2,0.1-0.4,0.2-0.5l4.7-37.3c0.1-0.6-0.1-1.1-0.5-1.6c-0.4-0.4-0.9-0.7-1.5-0.7h-10.7v-1.7c0-1.1-0.9-2-2-2h-2.2
					c-1.1,0-2,0.9-2,2V26h-1.7c-0.7,0-1.4,0.4-1.7,1l-0.8,1.4v-1.8c0-1.1-0.9-2-2-2h-16.2V23c0-1.1-0.9-2-2-2h-2.2c-1.1,0-2,0.9-2,2
					v1.6h-1.6c-1.1,0-2,0.9-2,2v2.2c0,1.1,0.9,2,2,2h1.6v30.7c0,1.1,0.9,2,2,2h2.2c1.1,0,2-0.9,2-2V55h12.7l-15.9,41
					c-0.2,0.6-0.2,1.3,0.2,1.9c0.4,0.5,1,0.9,1.7,0.9h2.4c0.8,0,1.6-0.5,1.9-1.3l25.2-65.2l2.2,0l0.9,28.7l-6.8-0.1
					c-0.5,0-1,0.2-1.4,0.6c-0.4,0.4-0.6,0.9-0.6,1.4l0,2.2c0,0.4,0.1,0.7,0.3,1.1l0.3,0.4l-0.5,0.2c-0.7,0.3-1.2,1-1.2,1.8v0.6h-3.2
					c-1.1,0-2,0.9-2,2v1.6c0,1.1,0.9,2,2,2h3.2v1.4l-5,5.1c-0.4,0.4-0.6,0.9-0.6,1.4c0,0.5,0.2,1.1,0.6,1.4l1.2,1.1
					c0.8,0.7,2.1,0.7,2.8-0.1l1-1v12.5c0,1.1,0.9,2,2,2h1.6c1.1,0,2-0.8,2-1.9l0-0.3l0.3-0.1c0.4-0.1,0.7-0.3,1-0.6l3.6-3.7v4.6
					c0,1.1,0.9,2,2,2h1.6c1.1,0,2-0.9,2-2v-5.6l0.3-0.1c0.4-0.1,0.7-0.3,1-0.5l1.2-1.2l3.8,3.9c0.7,0.8,2.1,0.8,2.8,0.1l1.4-1.3
					l1.3,1.2c0.8,0.7,2.1,0.7,2.8,0l3.7-3.8v3.7h-0.7c-1.1,0-2,0.9-2,2v1.6c0,1.1,0.9,2,2,2h4.3c0.7,0,1.3-0.3,1.7-0.9L222,97.4z
					 M215.6,91.6l-0.9,0.9c0.3-0.1,0.6-0.2,0.9-0.2V91.6z M222,94.4v-4.9l1,1c0.3,0.3,0.8,0.6,1.3,0.6l0.9,0.1L222,94.4z
					 M222.9,91.5v0.8l0.5-0.5C223.3,91.7,223.1,91.6,222.9,91.5z M258.8,93.1h-3.7l3.7-3.7V93.1z M257.2,92.3h0.7v-0.7L257.2,92.3z
					 M208.5,89.5l-3.9-4l4.7-4.7c0.1-0.1,0.2-0.2,0.3-0.3l0.2-0.3l0.3,0.1c0.2,0,0.3,0.1,0.5,0.1h0.6v3.3c0,0.7,0.3,1.3,0.9,1.7
					l0.4,0.3L208.5,89.5z M205.8,85.4l2.7,2.8l2.6-2.6c-0.5-0.5-0.9-1.3-0.9-2.1v-2.5c0,0-0.1,0-0.1,0c-0.1,0.1-0.1,0.2-0.2,0.2
					L205.8,85.4z M260.1,77.3h-7.6l3.8-3.8L260.1,77.3z M254.5,76.4h3.5l-1.7-1.8L254.5,76.4z M208.6,75.7l-0.3-0.4
					c-0.1-0.1-0.1-0.2-0.2-0.2l-0.4-0.3l0.4-0.3c0.1-0.1,0.2-0.2,0.2-0.2l0.3-0.4l0.3,0.4c0.1,0.1,0.1,0.2,0.2,0.2l0.4,0.3l-0.4,0.3
					c-0.1,0.1-0.2,0.2-0.2,0.2L208.6,75.7z M175.2,50.2l-0.5-0.6c-0.4-0.5-1-0.7-1.6-0.7h-8.9V40c0-1.1-0.9-2-2-2h-1.7v-7.1h1.1v1.7
					c0,1.1,0.9,2,2,2h8.9v1.6c0,1.1,0.9,2,2,2h2.2c1.1,0,2-0.9,2-2v-6.3l0.8,1.4c0.4,0.6,1,1,1.7,1h0.8L175.2,50.2z M165.2,48h8
					c0.6,0,1.2,0.2,1.7,0.6L179,38c-0.5,0.6-1.3,1-2.2,1h-2.2c-1.6,0-2.9-1.3-2.9-2.9v-0.7h-8.1c-0.9,0-1.7-0.4-2.2-1.1v2.7h0.8
					c1.6,0,2.9,1.3,2.9,2.9V48z M179.7,32.6v3.6c0,0,0,0.1,0,0.1l1.2-3.2C180.5,33,180,32.8,179.7,32.6z"/>
			</g>
		</g>
		<linearGradient id="SVGID_1_" gradientUnits="userSpaceOnUse" x1="29.4517" y1="66.8362" x2="81.1454" y2="66.8362">
			<stop  offset="0" style="stop-color:#6FCFF0"/>
			<stop  offset="0.6598" style="stop-color:#F599AE"/>
		</linearGradient>
		<path class="st3" d="M37,44.5h-7.1V47H37v4.6h-7.1V54H37v18.9l-7.5,7.5l1.8,1.7l19.5-19.8v33.7h2.1l0.3-56h27.9v-2.5H29.9V40H37
			V44.5z M39.5,54h6.8v-2.5h-6.8V47h6.8v-2.5h-6.8V40h11.3v19L39.5,70.5V54z"/>
		<path class="st4" d="M82.8,44.5h-25V47H77L65.9,58l-6.8-7.1l-1.7,1.7l6.8,7.1l-0.6,0.6c-2.9,2.7-5.2,5.2-6.2,6.3l1.7,1.7l6.8-6.9
			c3.7,3.5,7.5,6.9,11.2,10.4c0.6-0.7,1.2-1.3,1.8-2c-3.8-3.4-7.5-6.8-11.3-10.1L82.8,44.5z"/>
		<path class="st4" d="M81.1,23.7h-7.1v-6.9H37v16.5h37.1v-7.1h7.1V23.7z M71.6,23.7H43.8v2.5h27.8v4.6H39.5V19.2h32.1V23.7z"/>
		<polygon class="st4" points="31.1,30 25.5,35.9 25.5,26.1 32.4,26.1 32.4,23.7 25.5,23.7 25.5,16.7 23,16.7 23,23.7 9.2,23.7 
			9.2,26.1 23,26.1 23,38.3 8.6,52.8 10.4,54.5 23,41.7 23,88.6 25.5,88.6 25.5,39.3 27.2,37.6 27.1,37.6 33,32 		"/>
		<path class="st4" d="M88.4,41.5h18.2v20.3H86.2v-2.2h18.2V43.7H86.2V23.2h2.2V41.5z M106.7,26.9V29H90v-2.2H106.7z"/>
		
			<linearGradient id="SVGID_00000019637767876160584840000009777517611774524596_" gradientUnits="userSpaceOnUse" x1="113.568" y1="41.7436" x2="145.2655" y2="41.7436">
			<stop  offset="0" style="stop-color:#6FCFF0"/>
			<stop  offset="0.6598" style="stop-color:#F599AE"/>
		</linearGradient>
		<path style="fill:url(#SVGID_00000019637767876160584840000009777517611774524596_);" d="M145.3,59.6v2.2h-5.8V26.9l-16,16.1v18.8
			h-2.2V45.2l-6.1,6.1l-1.5-1.5l7.7-7.8v-9.3H114v-2.2h7.2v-7.3h2.2v7.3h3.7v2.2h-3.7v7.1l18.2-18.1v37.9H145.3z"/>
		<path class="st4" d="M176.6,26.8V29h-18.2v32.7h-2.2V29h-3.6v-2.2h3.6v-3.6h2.2v3.6H176.6z M162.1,51c3.6,0,7.3,0,10.9,0
			c0,0.7,0.1,1.5,0.1,2.2c-4.4,0-8.8,0-13.2,0V40.1h2.2V51z M176.6,30.5v5.8h-2.2v-3.6h-10.9v-2.2H176.6z"/>
		
			<linearGradient id="SVGID_00000153703681965094698260000018225571819736785315_" gradientUnits="userSpaceOnUse" x1="159.0499" y1="60.7" x2="213.3427" y2="60.7">
			<stop  offset="0" style="stop-color:#6FCFF0"/>
			<stop  offset="0.6598" style="stop-color:#F599AE"/>
		</linearGradient>
		<path style="fill:url(#SVGID_00000153703681965094698260000018225571819736785315_);" d="M199.9,28.2c-1.6,12.4-3.1,24.8-4.7,37.3
			c-3.5,0-6.9-0.1-10.4-0.1c0-0.7,0-1.5,0-2.2c3,0,5.9,0.1,8.9,0.1c-0.4-10.9-0.7-21.8-1.1-32.7c-1.9,0-3.7,0-5.6-0.1
			c-8.6,22.2-17.1,44.4-25.7,66.5c-0.8,0-1.6,0-2.4,0c8.6-22.2,17.2-44.4,25.8-66.5h-3.7v-2.2h3.7v-3.7h2.2v3.7
			C191.4,28.2,195.6,28.2,199.9,28.2z M207.3,24.5h2.2v13.4h-2.2V24.5z M213.3,24.5v13.4h-2.2V24.5H213.3z"/>
		
			<linearGradient id="SVGID_00000087389970173540677930000010441483474569983409_" gradientUnits="userSpaceOnUse" x1="207.0261" y1="45.4623" x2="223.0452" y2="45.4623">
			<stop  offset="0" style="stop-color:#6FCFF0"/>
			<stop  offset="0.6598" style="stop-color:#F599AE"/>
		</linearGradient>
		<path style="fill:url(#SVGID_00000087389970173540677930000010441483474569983409_);" d="M223,44.3v2.2h-16v-2.2H223z"/>
		
			<linearGradient id="SVGID_00000008863649787473052900000003452546511236223167_" gradientUnits="userSpaceOnUse" x1="227.7751" y1="44.2168" x2="256.5871" y2="44.2168">
			<stop  offset="0" style="stop-color:#6FCFF0"/>
			<stop  offset="0.6598" style="stop-color:#F599AE"/>
		</linearGradient>
		<path style="fill:url(#SVGID_00000008863649787473052900000003452546511236223167_);" d="M227.8,24.5h2.2V64h-2.2V24.5z M256.6,33
			l-25.1,29.2V24.5h2.2c1,8.2,2,16.5,3,24.7c6.1-5.9,12.1-11.8,18.2-17.6L256.6,33z"/>
		
			<linearGradient id="SVGID_00000082355573909458843890000015338167830843501215_" gradientUnits="userSpaceOnUse" x1="244.7063" y1="58.5286" x2="289.6547" y2="58.5286">
			<stop  offset="0" style="stop-color:#6FCFF0"/>
			<stop  offset="0.6598" style="stop-color:#F599AE"/>
		</linearGradient>
		<path style="fill:url(#SVGID_00000082355573909458843890000015338167830843501215_);" d="M278.8,20.1h2.2v13.4h-2.2v-5.9L266.5,40
			c7.7,19,15.4,38,23.1,57c-0.9,0-1.7,0-2.6,0C279.7,78.5,272.3,60,265,41.5l-18.6,18.6l-1.7-1.6c9.2-10.8,18.4-21.6,27.5-32.4
			c-5.3,0-10.6,0-15.9,0v-2.2h22.4V20.1z M284.8,20.1v13.4h-2.2V20.1H284.8z"/>
		<g>
			<path class="st4" d="M195.9,96.9h-1.6v-9.5l-7.1,7.2l-1.2-1.1l3-3v-6.7h-2.7v-1.6h2.7V81h-2.7v-1.6h2.7v-1h-2.7v-1.5l-1,1v19
				h-1.6V79.5l-4.5,4.5l-1.2-1.1l5.6-5.7v-4.2h-5.2v-1.6h5.2v-2.6h1.6v2.6h2.6v1.6h-2.6v2.6l1.8-1.9l1.2,1.2l-1.9,1.8h20.1v1.6
				h-10.6V96.9z M203.9,75.8h-14.8v-6.9h14.8v2.6h2.7v1.6h-2.7V75.8z M202.3,74.2v-1.1h-10.6v-1.6h10.6v-1h-11.6v3.8H202.3z
				 M194.4,78.4h-3.7v1h2.6V81h-2.6v1.1h2.6v1.6h-2.6v5.1l3.7-3.7V78.4z M201.6,85.5l5.2,5.4l-1.2,1.1l-5.2-5.4l-2.6,2.6l-1.1-1.1
				c0,0,1.1-1.2,2.6-2.6l-2.6-2.7l1.1-1.1l2.6,2.7l3.4-3.4h-6.8v-1.6h10.6L201.6,85.5z"/>
			<path class="st4" d="M217.5,85.5l-6.4,6.4l-1.2-1.1l6.4-6.4L217.5,85.5z M212.9,73.1h-2.6v-1.6h2.6v-2.6h12.1v6.9h-5.2v1h5.2v1.6
				h-14.8v-1.6h7.9v-1h-5.3V73.1z M219.8,83.7v13.2h-4.3v-1.6h2.7V83.7h-5.3v-4.3h12.1v4.3H219.8z M214.5,71.5h7.9v1.6h-7.9v1.1h9
				v-3.8h-9V71.5z M214.5,82.1h9V81h-9V82.1z M224.3,89.3l-3.7-3.8l1.1-1.1l3.7,3.8L224.3,89.3z M238.7,82.9l-14.4,14.3l-1.1-1.1
				l14.4-14.4L238.7,82.9z M226.8,81.3l-1.1-1.1l11.5-11.5l1.1,1.1L226.8,81.3z M226.8,86.6l-1.1-1.1l11.8-11.8l1.1,1.1L226.8,86.6z
				"/>
			<path class="st4" d="M269.4,84l-4.5-4.5V81h-17.5v-1.5l-4.5,4.5l-1.2-1.1l14.4-14.4l14.4,14.4L269.4,84z M260.6,90h1.6v6.8h-16
				l12.5-12.5l1.2,1.1l-9.9,9.8h10.6V90z M264.8,82.1v1.6h-17.5v-1.6H264.8z M264.8,79.4l-8.7-8.7l-8.6,8.7H264.8z"/>
		</g>
		<g>
			<path class="st0" d="M67.9,80.4h7.4v1.7h-7.4V80.4z"/>
			<path class="st0" d="M84.6,76.2h1.7v2.9c1.2-0.1,2.4-0.2,3.6-0.2l0.1,1.6c-1.5-0.1-2.9,0-4.3,0.3c-0.7,0.1-1.3,0.4-1.9,0.8
				c-0.4,0.3-0.5,0.7-0.5,1.1c0,0.5,0.2,0.9,0.6,1.1c0.5,0.3,1.1,0.5,1.7,0.5c1.6,0.1,3.1,0,4.6-0.3l0,1.8c-1.7,0.4-3.5,0.5-5.2,0.3
				c-1.2-0.2-2.2-0.8-3-1.8c-0.3-0.5-0.5-1.1-0.5-1.7c0-0.6,0.2-1.2,0.6-1.6c0.7-0.7,1.5-1.3,2.4-1.5V76.2z"/>
			<path class="st0" d="M95.9,78.4l1.8,0c-0.2,1-0.3,1.9-0.3,2.8c0.5-0.5,1.2-0.9,1.9-1.1c0.9-0.3,1.9-0.4,2.9-0.2
				c0.6,0.2,1.1,0.5,1.5,1c0.4,0.5,0.7,1,0.7,1.6c0,0.6-0.1,1.2-0.3,1.7s-0.7,1-1.2,1.3c-0.8,0.5-1.7,0.8-2.7,0.8
				c-1.2,0-2.4,0-3.6-0.2L96,84.4c1.5,0.3,3,0.4,4.5,0.4c0.8,0,1.5-0.4,2-1.1c0.3-0.4,0.4-0.9,0.2-1.4c-0.2-0.5-0.6-0.8-1.1-0.9
				c-0.8-0.1-1.6,0-2.4,0.3c-0.9,0.4-1.5,1-1.9,1.9l-1.6,0C95.7,81.8,95.8,80.1,95.9,78.4z M97.6,76.1c1.4,0,2.7,0.3,3.9,0.8
				l-0.7,1.7c-1.3-0.4-2.6-0.7-3.9-0.8L97.6,76.1z"/>
			<path class="st0" d="M109.6,78.6h4.1c-0.2-0.6-0.5-1.3-0.7-2l1.7-0.4c0.2,0.8,0.5,1.6,0.8,2.4h3.5v1.7h-2.7
				c0.4,0.7,0.9,1.4,1.3,2.1l-1.3,1.2c-0.8-1-1.4-2.1-2-3.3h-4.8V78.6z M112.1,81l1.3,1c-0.4,0.2-0.7,0.4-1,0.7
				c-0.3,0.3-0.3,0.7-0.2,1.1c0.2,0.4,0.5,0.6,0.9,0.7c1.7,0.2,3.4-0.1,5.1-0.7v1.8c-1.8,0.5-3.5,0.6-5.3,0.4
				c-0.8-0.1-1.5-0.5-1.9-1.2c-0.5-0.7-0.6-1.5-0.4-2.3C110.9,81.9,111.4,81.3,112.1,81z"/>
			<path class="st0" d="M126.3,85.7l-0.7-1.8c1.8,0.2,3.5-0.1,5.2-0.8c0.4-0.2,0.7-0.5,0.9-0.9c0.2-0.4,0.2-0.9,0.1-1.4
				c-0.1-0.5-0.4-0.9-0.8-1.2c-0.3-0.2-0.6-0.3-0.9-0.3c-2.1,0-4,0.5-5.9,1.3l-0.5-1.7c2-0.8,4.1-1.3,6.3-1.3c1.1,0,2,0.5,2.7,1.2
				c0.5,0.6,0.8,1.3,0.9,2.2c0.1,0.8-0.1,1.6-0.5,2.3c-0.4,0.5-0.8,1-1.4,1.3C129.8,85.4,128.1,85.7,126.3,85.7z"/>
			<path class="st0" d="M139,80.4h7.4v1.7H139V80.4z"/>
		</g>
	</g>
</g>
</svg>
